<svg width="120" height="120" viewBox="0 0 120 120" fill="none" xmlns="http://www.w3.org/2000/svg">
<path fill-rule="evenodd" clip-rule="evenodd" d="M60 120C93.1371 120 120 93.1371 120 60C120 26.8629 93.1371 0 60 0C26.8629 0 0 26.8629 0 60C0 93.1371 26.8629 120 60 120Z" fill="#E2E8F0"/>
<path fill-rule="evenodd" clip-rule="evenodd" d="M71.7113 45C73.5531 45 75.06 46.5 75.06 48.3333V71.6667C75.06 73.5 73.5531 75 71.7113 75H48.2706C46.4288 75 44.9219 73.5 44.9219 71.6667V48.3333C44.9219 46.5 46.4288 45 48.2706 45H71.7113ZM58.3166 67.5167L54.1307 62.5L48.2706 70H71.7113L64.1768 60L58.3166 67.5167Z" fill="#94A3B8"/>
<circle cx="100" cy="100" r="20" fill="#525252"/>
<path d="M110.476 106.666C110.476 107.171 110.275 107.656 109.918 108.013C109.561 108.37 109.076 108.571 108.571 108.571H91.4282C90.923 108.571 90.4385 108.37 90.0813 108.013C89.7241 107.656 89.5234 107.171 89.5234 106.666V96.1901C89.5234 95.685 89.7241 95.2005 90.0813 94.8433C90.4385 94.486 90.923 94.2854 91.4282 94.2854H95.2377L97.1425 91.4282H102.857L104.762 94.2854H108.571C109.076 94.2854 109.561 94.486 109.918 94.8433C110.275 95.2005 110.476 95.685 110.476 96.1901V106.666Z" stroke="#FFFEFE" stroke-linecap="round" stroke-linejoin="round"/>
<path d="M99.997 104.762C102.101 104.762 103.807 103.056 103.807 100.952C103.807 98.8482 102.101 97.1426 99.997 97.1426C97.8931 97.1426 96.1875 98.8482 96.1875 100.952C96.1875 103.056 97.8931 104.762 99.997 104.762Z" stroke="#FFFEFE" stroke-linecap="round" stroke-linejoin="round"/>
</svg>
