<svg width="14" height="14" viewBox="0 0 14 14" fill="none" xmlns="http://www.w3.org/2000/svg">
<path d="M12.8338 9.8699V11.6199C12.8345 11.7824 12.8012 11.9432 12.7361 12.092C12.671 12.2409 12.5756 12.3745 12.4559 12.4843C12.3362 12.5941 12.1948 12.6778 12.0409 12.7298C11.887 12.7819 11.724 12.8012 11.5622 12.7866C9.76714 12.5915 8.04291 11.9781 6.52799 10.9957C5.11856 10.1001 3.9236 8.90516 3.02799 7.49573C2.04214 5.97393 1.42863 4.24131 1.23716 2.43823C1.22258 2.27692 1.24175 2.11434 1.29345 1.96084C1.34515 1.80735 1.42824 1.6663 1.53744 1.54667C1.64663 1.42705 1.77954 1.33147 1.9277 1.26603C2.07586 1.20059 2.23602 1.16671 2.39799 1.16656H4.14799C4.43109 1.16377 4.70554 1.26402 4.92018 1.44862C5.13483 1.63322 5.27503 1.88957 5.31466 2.16989C5.38852 2.72993 5.5255 3.27982 5.72299 3.80906C5.80147 4.01785 5.81846 4.24476 5.77194 4.46291C5.72541 4.68105 5.61733 4.88129 5.46049 5.03989L4.71966 5.78073C5.55006 7.24113 6.75925 8.45032 8.21966 9.28073L8.96049 8.5399C9.11909 8.38306 9.31933 8.27497 9.53748 8.22845C9.75562 8.18193 9.98253 8.19891 10.1913 8.2774C10.7206 8.47488 11.2705 8.61187 11.8305 8.68573C12.1139 8.72571 12.3726 8.86843 12.5576 9.08677C12.7426 9.3051 12.8409 9.58382 12.8338 9.8699Z" stroke="#525252" stroke-linecap="round" stroke-linejoin="round"/>
</svg>
