<svg width="14" height="14" viewBox="0 0 14 14" fill="none" xmlns="http://www.w3.org/2000/svg">
<path d="M10.5 4.6665C11.4665 4.6665 12.25 3.883 12.25 2.9165C12.25 1.95001 11.4665 1.1665 10.5 1.1665C9.5335 1.1665 8.75 1.95001 8.75 2.9165C8.75 3.883 9.5335 4.6665 10.5 4.6665Z" stroke="black" stroke-linecap="round" stroke-linejoin="round"/>
<path d="M3.5 8.75C4.4665 8.75 5.25 7.9665 5.25 7C5.25 6.0335 4.4665 5.25 3.5 5.25C2.5335 5.25 1.75 6.0335 1.75 7C1.75 7.9665 2.5335 8.75 3.5 8.75Z" stroke="black" stroke-linecap="round" stroke-linejoin="round"/>
<path d="M10.5 12.8335C11.4665 12.8335 12.25 12.05 12.25 11.0835C12.25 10.117 11.4665 9.3335 10.5 9.3335C9.5335 9.3335 8.75 10.117 8.75 11.0835C8.75 12.05 9.5335 12.8335 10.5 12.8335Z" stroke="black" stroke-linecap="round" stroke-linejoin="round"/>
<path d="M5.01083 7.88086L8.995 10.2025" stroke="black" stroke-linecap="round" stroke-linejoin="round"/>
<path d="M8.98917 3.79736L5.01083 6.11903" stroke="black" stroke-linecap="round" stroke-linejoin="round"/>
</svg>
